<?xml version="1.0" standalone="no"?><!DOCTYPE svg PUBLIC "-//W3C//DTD SVG 1.1//EN" "http://www.w3.org/Graphics/SVG/1.1/DTD/svg11.dtd"><svg t="1595923760905" class="icon" viewBox="0 0 1024 1024" version="1.1" xmlns="http://www.w3.org/2000/svg" p-id="1195" xmlns:xlink="http://www.w3.org/1999/xlink" width="200" height="200"><defs><style type="text/css"></style></defs><path d="M250 0H50C22.386 0 0 22.386 0 50v200c0 27.614 22.386 50 50 50h200c27.614 0 50-22.386 50-50V50c0-27.614-22.386-50-50-50zM250 362H50c-27.614 0-50 22.386-50 50v200c0 27.614 22.386 50 50 50h200c27.614 0 50-22.386 50-50V412c0-27.614-22.386-50-50-50zM250 724H50c-27.614 0-50 22.386-50 50v200c0 27.614 22.386 50 50 50h200c27.614 0 50-22.386 50-50V774c0-27.614-22.386-50-50-50zM612 0H412c-27.614 0-50 22.386-50 50v200c0 27.614 22.386 50 50 50h200c27.614 0 50-22.386 50-50V50c0-27.614-22.386-50-50-50zM612 362H412c-27.614 0-50 22.386-50 50v200c0 27.614 22.386 50 50 50h200c27.614 0 50-22.386 50-50V412c0-27.614-22.386-50-50-50zM612 724H412c-27.614 0-50 22.386-50 50v200c0 27.614 22.386 50 50 50h200c27.614 0 50-22.386 50-50V774c0-27.614-22.386-50-50-50zM974 0H774c-27.614 0-50 22.386-50 50v200c0 27.614 22.386 50 50 50h200c27.614 0 50-22.386 50-50V50c0-27.614-22.386-50-50-50zM974 362H774c-27.614 0-50 22.386-50 50v200c0 27.614 22.386 50 50 50h200c27.614 0 50-22.386 50-50V412c0-27.614-22.386-50-50-50zM974 724H774c-27.614 0-50 22.386-50 50v200c0 27.614 22.386 50 50 50h200c27.614 0 50-22.386 50-50V774c0-27.614-22.386-50-50-50z" p-id="1196"></path></svg>