<?xml version="1.0" encoding="utf-8"?>
<!-- Generator: Adobe Illustrator 17.1.0, SVG Export Plug-In . SVG Version: 6.00 Build 0)  -->
<!DOCTYPE svg PUBLIC "-//W3C//DTD SVG 1.1//EN" "http://www.w3.org/Graphics/SVG/1.1/DTD/svg11.dtd">
<svg version="1.1" id="Layer_1" xmlns="http://www.w3.org/2000/svg" xmlns:xlink="http://www.w3.org/1999/xlink" x="0px" y="0px"
	 viewBox="0 0 167 123" style="enable-background:new 0 0 167 123;" width="167" height="123" xml:space="preserve">
<style type="text/css">
	.st0{fill:#ED1C24;}
</style>
<path d="M46.7,11c-5.7,3.9-8.9,33.8-0.3,68.4c2,8.2,2.2,2,1.7,0c-1.3-5.5-2.6-19.9-2.6-37.3s2.8-23.9,2.8-26.4S47.6,10.3,46.7,11z"
	/>
<path d="M66.5,48.7c-2.2,1.2-10.9,13.6-30.3,25.9c-4.6,3-6.1,5.2,1.2,2c4-1.7,8.9-2.9,18.7-2.2S66,75,68.3,75s5-2.8,1.3-3.4
	c-3.7-0.7-22.5-0.5-27.5,1.7c1.6-1.6,26.2-21.2,26.7-21.8C69.4,50.9,72.2,45.6,66.5,48.7z"/>
<path d="M82.5,48.1c-0.3,3.2-2.1,23.6-2.1,25.1s2,1.6,2.3-0.8c0.3-2.4,1.5-22.6,1.8-24.4C85,44.8,83.2,41.4,82.5,48.1z"/>
<path class="st0" d="M79,50.8c1.1-1.1,17.4-5.9,19.4-5.9s4.2,2.6-0.1,2.8c-7.7,0.4-14.3,1.9-17.9,4.8C76.8,55.5,78,51.8,79,50.8z"/>
<path d="M78.4,69.3c1.1-1.1,17.6-6.1,22.3-6.1c2,0,5.1,3.1,0.8,3.1c-8.5,0-17.5,1.8-21.2,4.7C76.8,74,77.5,70.3,78.4,69.3z"/>
<path d="M78.4,59.1c1.1-1.1,11.3-4.7,16-4.7c2,0,5.1,3.1,0.8,3.1c-8.5,0-11.2,0.4-14.8,3.4S77.5,60.1,78.4,59.1z"/>
<path d="M100.4,33.6c0.7-2.2,10,5.6,12.8,7.9c6.3,5,14.6,17,16.3,19.9c-1.8,0.2-19.6-15.1-20.5-16C108.2,44.5,99.2,37.6,100.4,33.6z
	"/>
<path d="M145.4,40.8c-5.5,3.3-23.5,30.6-30.4,40.1c-5.9,8.1-16.9,27.9-19.1,31.4c2.8-2.8,31.7-44.8,34.6-47.8
	c2.9-2.9,13.2-14.7,15.4-16.9C148,45.6,149.4,38.5,145.4,40.8z"/>
<path class="st0" d="M104.8,79.3c-20.7,2.6-50.7,9.3-53,9.3c-2.3,0-9,2.3-13,2.1c-4.2-0.2-8.3,3.4-12.5,3.4c-3.3,0-5.9,0.9-7,2
	c-1.5,1.5-1.1,5.5,2.1,4C32.4,95.1,104.8,79.3,104.8,79.3z"/>
</svg>
